<?xml version="1.0" encoding="UTF-8"?>
<!DOCTYPE svg PUBLIC "-//W3C//DTD SVG 1.1//EN" "http://www.w3.org/Graphics/SVG/1.1/DTD/svg11.dtd">
<!-- Creator: CorelDRAW X7 -->
<svg xmlns="http://www.w3.org/2000/svg" xml:space="preserve" width="176.174mm" height="20.5917mm" version="1.1" style="shape-rendering:geometricPrecision; text-rendering:geometricPrecision; image-rendering:optimizeQuality; fill-rule:evenodd; clip-rule:evenodd"
viewBox="0 0 17404 2034"
 xmlns:xlink="http://www.w3.org/1999/xlink">
 <defs>
  <style type="text/css">
   <![CDATA[
    .fil2 {fill:#FEFEFE;fill-rule:nonzero}
    .fil0 {fill:#AFB1B4;fill-rule:nonzero}
    .fil1 {fill:#F58634;fill-rule:nonzero}
   ]]>
  </style>
 </defs>
 <g id="Layer_x0020_1">
  <metadata id="CorelCorpID_0Corel-Layer"/>
  <g id="_907524364896">
   <g>
    <path class="fil0" d="M3814 1793c-146,149 -320,213 -508,213 -389,0 -712,-255 -712,-718 0,-463 318,-719 712,-719 185,0 351,65 495,208l-144 152c-96,-96 -223,-141 -345,-141 -270,0 -489,188 -489,500 0,322 221,499 486,499 130,0 260,-45 356,-146l152 155 -3 -3z"/>
    <path class="fil0" d="M4692 564c417,0 710,297 710,727 0,420 -298,715 -710,715 -408,0 -706,-295 -706,-715 0,-430 300,-727 706,-727zm3 210l0 0c-279,0 -483,208 -483,517 0,292 202,499 480,499 282,0 483,-207 486,-499 0,-309 -210,-517 -483,-517z"/>
    <path class="fil0" d="M5730 598l210 0 14 202c82,-163 248,-228 403,-228 187,0 381,82 458,303 100,-213 287,-303 480,-303 359,0 574,239 574,617l0 792 -226 0 0 -792c0,-227 -130,-401 -353,-401 -224,0 -373,180 -373,407l0 786 -226 0 0 -786c0,-227 -141,-407 -367,-407 -224,0 -370,180 -370,407l0 786 -227 0 0 -1386 3 3z"/>
    <path class="fil0" d="M8270 598l209 0 14 202c83,-163 249,-228 403,-228 188,0 381,82 458,303 100,-213 288,-303 481,-303 359,0 574,239 574,617l0 792 -226 0 0 -792c0,-227 -130,-401 -354,-401 -223,0 -372,180 -372,407l0 786 -227 0 0 -786c0,-227 -140,-407 -367,-407 -223,0 -370,180 -370,407l0 786 -226 0 0 -1386 3 3z"/>
    <path class="fil0" d="M11866 1981l-11 -222c-121,169 -284,242 -474,244 -348,0 -594,-238 -594,-642l0 -766 226 0 0 763c0,267 155,432 415,432 248,-3 419,-202 419,-452l0 -743 227 0 0 1386 -210 0 2 0z"/>
    <path class="fil0" d="M13362 903c-118,-109 -242,-134 -383,-134 -188,-3 -340,64 -337,202 3,143 168,185 340,205 248,31 579,81 574,423 -6,278 -265,416 -572,416 -229,0 -455,-65 -610,-261l130 -160c121,151 317,213 486,213 149,0 339,-48 345,-216 3,-152 -158,-197 -367,-222 -262,-33 -544,-104 -544,-398 -3,-295 290,-410 552,-407 204,0 373,50 519,185l-130 152 -3 2z"/>
    <path class="fil0" d="M14483 564c417,0 710,297 710,727 0,420 -298,715 -710,715 -408,0 -706,-295 -706,-715 0,-430 301,-727 706,-727zm3 210l0 0c-279,0 -483,208 -483,517 0,292 202,499 480,499 282,0 483,-207 486,-499 0,-309 -210,-517 -483,-517z"/>
    <path class="fil0" d="M15648 1984l0 -1170 -268 0 0 -203 268 0 0 -109c0,-317 171,-502 458,-502 111,0 216,37 309,101l-93 171c-75,-45 -133,-70 -210,-70 -146,0 -240,93 -240,300l0 109 428 0 0 203 -428 0 0 1167 -227 0 3 3z"/>
    <path class="fil0" d="M16934 598l423 0 0 196 -425 0 0 732c0,163 52,267 215,267 61,0 130,-20 190,-51l67 191c-91,42 -174,65 -265,68 -293,5 -431,-169 -431,-475l0 -732 -273 0 0 -196 273 0 0 -382 226 -25 0 407z"/>
   </g>
   <path class="fil1" d="M2030 1725c0,171 -138,309 -309,309l-1412 0c-170,0 -309,-138 -309,-309l0 -1412c0,-171 139,-309 309,-309l1412 0c171,0 309,138 309,309l0 1412z"/>
   <path class="fil2" d="M1565 728l0 -369 -103 102c-119,-94 -253,-137 -400,-137 -375,0 -676,243 -676,682 0,440 306,683 676,683 178,0 344,-62 482,-203l3 3 -144 -147c-92,96 -215,139 -338,139 -252,0 -462,-168 -462,-475 0,-296 207,-474 464,-474 86,0 174,23 252,73l-123 123 369 0z"/>
  </g>
 </g>
</svg>
